<svg width="26" height="20" viewBox="0 0 26 20" fill="none" xmlns="http://www.w3.org/2000/svg">
<path d="M24.9775 0C25.4236 0 25.7329 0.463311 25.5775 0.89883L25.2605 1.78772C25.1673 2.04892 24.928 2.22222 24.6605 2.22222H23.2883C23.1458 2.22222 23.0205 2.32032 22.9809 2.46286L19.4757 15.0743C19.3964 15.3594 19.1458 15.5556 18.8609 15.5556H5.64485C5.38703 15.5556 5.15438 15.3944 5.05464 15.1468L0.668675 4.25792C0.491719 3.8186 0.801485 3.33333 1.25888 3.33333H17.3849C17.8092 3.33333 18.116 3.75557 18.0009 4.18094L17.7602 5.06983C17.6824 5.35713 17.4308 5.55556 17.1442 5.55556H3.98635C3.75765 5.55556 3.60276 5.79819 3.69125 6.01785L6.55573 13.129C6.6056 13.2528 6.72192 13.3333 6.85083 13.3333H17.5207C17.6636 13.3333 17.7891 13.2347 17.8284 13.0917L21.2904 0.483351C21.369 0.197234 21.6201 0 21.9058 0H24.9775ZM9.36358 16.6667C8.48032 16.6667 7.76347 17.4133 7.76347 18.3333C7.76347 19.2544 8.48032 20 9.36358 20C10.2468 20 10.9637 19.2544 10.9637 18.3333C10.9637 17.4133 10.2468 16.6667 9.36358 16.6667ZM14.6973 16.6667C13.814 16.6667 13.0972 17.4122 13.0972 18.3333C13.0972 19.2544 13.814 20 14.6973 20C15.5806 20 16.2974 19.2544 16.2974 18.3333C16.2974 17.4133 15.5806 16.6667 14.6973 16.6667Z" fill="#454545"/>
</svg>
