<svg width="25" height="25" viewBox="0 0 25 25" fill="none" xmlns="http://www.w3.org/2000/svg">
<path d="M14.3021 21.875C14.1189 22.1907 13.8561 22.4528 13.5398 22.6349C13.2236 22.8171 12.865 22.913 12.5 22.913C12.135 22.913 11.7764 22.8171 11.4602 22.6349C11.1439 22.4528 10.8811 22.1907 10.6979 21.875M18.75 8.75001C18.75 6.9823 18.0917 5.28647 16.9198 4.03647C15.7479 2.78647 14.1562 2.08334 12.5 2.08334C10.8437 2.08334 9.25312 2.78543 8.08021 4.03647C6.90833 5.28647 6.25 6.9823 6.25 8.75001C6.25 16.5281 3.125 18.75 3.125 18.75H21.875C21.875 18.75 18.75 16.5281 18.75 8.75001Z" stroke="#3FE29E" stroke-width="1.5" stroke-linecap="round" stroke-linejoin="round"/>
</svg>
