<svg width="25" height="25" viewBox="0 0 25 25" fill="none" xmlns="http://www.w3.org/2000/svg">
<g clip-path="url(#clip0_323_118)">
<path d="M12.6953 9.96266C12.4703 10.2214 12.3437 10.5786 12.3437 10.9372C12.3437 11.1237 12.2697 11.3025 12.1378 11.4344C12.0059 11.5662 11.8271 11.6403 11.6406 11.6403C11.4541 11.6403 11.2753 11.5662 11.1434 11.4344C11.0116 11.3025 10.9375 11.1237 10.9375 10.9372C10.9375 10.272 11.1639 9.57313 11.6406 9.03313C12.1286 8.47907 12.85 8.12469 13.75 8.12469C14.65 8.12469 15.3714 8.47907 15.8594 9.03313C16.3361 9.57453 16.5625 10.2706 16.5625 10.9372C16.5625 11.6263 16.3994 12.1606 16.1378 12.6106C15.9086 13.003 15.6091 13.3138 15.3714 13.5627L15.3123 13.6231C15.0508 13.8973 14.8497 14.1209 14.702 14.4022C14.5614 14.6708 14.4531 15.0266 14.4531 15.568C14.4531 15.7544 14.379 15.9333 14.2472 16.0652C14.1153 16.197 13.9365 16.2711 13.75 16.2711C13.5635 16.2711 13.3847 16.197 13.2528 16.0652C13.1209 15.9333 13.0469 15.7544 13.0469 15.568C13.0469 14.8198 13.2016 14.2362 13.4561 13.7497C13.705 13.2758 14.0326 12.9284 14.297 12.6514L14.328 12.6191C14.5923 12.342 14.7808 12.1452 14.9228 11.9019C15.0564 11.6727 15.1562 11.383 15.1562 10.9372C15.1562 10.5786 15.0311 10.22 14.8047 9.96266C14.5895 9.71938 14.2562 9.53094 13.75 9.53094C13.2437 9.53094 12.9105 9.71938 12.6953 9.96266ZM13.75 19.6728C13.8823 19.6778 14.0143 19.6561 14.138 19.6089C14.2617 19.5617 14.3746 19.4901 14.47 19.3982C14.5653 19.3064 14.6412 19.1963 14.693 19.0744C14.7449 18.9526 14.7716 18.8215 14.7716 18.6891C14.7716 18.5567 14.7449 18.4257 14.693 18.3039C14.6412 18.182 14.5653 18.0719 14.47 17.9801C14.3746 17.8882 14.2617 17.8166 14.138 17.7694C14.0143 17.7222 13.8823 17.7005 13.75 17.7055C13.4889 17.7055 13.2385 17.8092 13.0539 17.9938C12.8693 18.1784 12.7656 18.4288 12.7656 18.6898C12.7656 18.9509 12.8693 19.2013 13.0539 19.3859C13.2385 19.5705 13.4889 19.6742 13.75 19.6742M2.5 13.7497C2.50062 11.2913 3.30647 8.90081 4.79432 6.9438C6.28218 4.98679 8.37011 3.57101 10.7388 2.91299C13.1075 2.25497 15.6265 2.39095 17.9105 3.30012C20.1946 4.20929 22.118 5.84161 23.3866 7.94741C24.6551 10.0532 25.1989 12.5166 24.9349 14.9607C24.6709 17.4049 23.6135 19.6953 21.9246 21.4816C20.2356 23.2679 18.008 24.4518 15.5824 24.8522C13.1569 25.2527 10.6669 24.8476 8.49343 23.6989L3.37469 24.9786C3.25688 25.0082 3.13341 25.0068 3.01631 24.9745C2.89921 24.9422 2.79248 24.8801 2.70652 24.7943C2.62055 24.7084 2.55829 24.6018 2.52579 24.4848C2.4933 24.3677 2.49168 24.2443 2.5211 24.1264L3.80078 19.0062C2.94566 17.3861 2.49914 15.5816 2.5 13.7497ZM13.75 3.90594C12.0321 3.90542 10.344 4.35448 8.85337 5.20851C7.36279 6.06253 6.12165 7.29177 5.25332 8.77407C4.38499 10.2564 3.91969 11.9401 3.90368 13.6579C3.88766 15.3758 4.32148 17.0679 5.16203 18.5661C5.25031 18.7224 5.27546 18.9065 5.23234 19.0808L4.16922 23.3305L8.4189 22.2673C8.59315 22.2242 8.77729 22.2494 8.93359 22.3377C10.246 23.0729 11.7094 23.4975 13.2115 23.579C14.7136 23.6605 16.2144 23.3966 17.5986 22.8076C18.9828 22.2187 20.2136 21.3203 21.1965 20.1815C22.1794 19.0427 22.8883 17.6938 23.2686 16.2384C23.6489 14.783 23.6906 13.2597 23.3905 11.7857C23.0903 10.3116 22.4563 8.92596 21.5372 7.73512C20.6181 6.54427 19.4382 5.57992 18.0883 4.91613C16.7384 4.25234 15.2543 3.90676 13.75 3.90594Z" fill="#3FE29E"/>
</g>
<defs>
<clipPath id="clip0_323_118">
<rect width="25" height="25" fill="white"/>
</clipPath>
</defs>
</svg>
