<svg width="19" height="21" viewBox="0 0 19 21" fill="none" xmlns="http://www.w3.org/2000/svg">
<path d="M7.93962 12.0625H12.659C12.8187 12.0625 12.9522 12.0089 13.0595 11.9016C13.1667 11.7944 13.2207 11.6605 13.2215 11.5C13.2222 11.3395 13.1682 11.2056 13.0595 11.0984C12.9507 10.9911 12.8172 10.9375 12.659 10.9375H7.93962L9.905 8.97325C10.01 8.86825 10.0662 8.74038 10.0738 8.58963C10.0813 8.43888 10.0227 8.30125 9.89825 8.17675C9.77825 8.05675 9.6455 7.99675 9.5 7.99675C9.3545 7.99675 9.22175 8.05675 9.10175 8.17675L6.41525 10.8644C6.233 11.0459 6.14188 11.2578 6.14188 11.5C6.14188 11.7423 6.233 11.9541 6.41525 12.1356L9.10175 14.8233C9.20675 14.9283 9.335 14.9856 9.4865 14.9954C9.638 15.0051 9.77525 14.9478 9.89825 14.8233C10.0183 14.7033 10.0782 14.5705 10.0782 14.425C10.0782 14.2795 10.0183 14.1468 9.89825 14.0268L7.93962 12.0625ZM2.31687 20.5C1.81437 20.5 1.38575 20.323 1.031 19.969C0.677 19.615 0.5 19.1864 0.5 18.6831V4.31688C0.5 3.81438 0.677 3.38575 1.031 3.031C1.385 2.677 1.81362 2.5 2.31687 2.5H7.60437C7.50237 1.92625 7.64 1.40763 8.01725 0.944127C8.3945 0.480627 8.88875 0.249252 9.5 0.250002C10.1263 0.250002 10.628 0.481377 11.0052 0.944127C11.3825 1.40688 11.5126 1.9255 11.3956 2.5H16.6831C17.1856 2.5 17.6143 2.677 17.969 3.031C18.323 3.385 18.5 3.81363 18.5 4.31688V18.6831C18.5 19.1856 18.323 19.6143 17.969 19.969C17.615 20.323 17.1864 20.5 16.6831 20.5H2.31687ZM2.31687 19.375H16.6831C16.8556 19.375 17.0142 19.303 17.159 19.159C17.3038 19.015 17.3757 18.8564 17.375 18.6831V4.31688C17.375 4.14438 17.303 3.98575 17.159 3.841C17.015 3.69625 16.8564 3.62425 16.6831 3.625H2.31687C2.14437 3.625 1.98575 3.697 1.841 3.841C1.69625 3.985 1.62425 4.14363 1.625 4.31688V18.6831C1.625 18.8556 1.697 19.0143 1.841 19.159C1.985 19.3038 2.14362 19.3758 2.31687 19.375ZM9.5 2.99725C9.74375 2.99725 9.9455 2.91775 10.1053 2.75875C10.265 2.59975 10.3445 2.398 10.3438 2.1535C10.343 1.909 10.2631 1.70763 10.1041 1.54938C9.94512 1.39113 9.74375 1.31125 9.5 1.30975C9.25625 1.30825 9.05488 1.38813 8.89587 1.54938C8.73688 1.71063 8.657 1.912 8.65625 2.1535C8.6555 2.395 8.73538 2.59675 8.89587 2.75875C9.05638 2.92075 9.25775 3.00025 9.5 2.99725Z" fill="#3FE29E"/>
</svg>
