<svg width="19" height="21" viewBox="0 0 19 21" fill="none" xmlns="http://www.w3.org/2000/svg">
<path fill-rule="evenodd" clip-rule="evenodd" d="M9.89944 0.82309C9.58315 0.567759 9.14026 0.567759 8.82398 0.82309L0.941164 7.18672C0.727815 7.35896 0.603027 7.62378 0.603027 7.90432V17.9043C0.603027 18.6276 0.879863 19.3213 1.37263 19.8328C1.86541 20.3442 2.53375 20.6316 3.23063 20.6316H6.73406V18.8134H3.23063C2.99834 18.8134 2.77556 18.7176 2.6113 18.5471C2.44704 18.3766 2.35476 18.1454 2.35476 17.9043V8.34894L9.36171 2.69237L16.3687 8.34894V17.9043C16.3687 18.1454 16.2764 18.3766 16.1121 18.5471C15.9479 18.7176 15.7251 18.8134 15.4928 18.8134H11.9893V20.6316H15.4928C16.1897 20.6316 16.858 20.3442 17.3508 19.8328C17.8435 19.3213 18.1204 18.6276 18.1204 17.9043V7.90432C18.1204 7.62378 17.9956 7.35896 17.7822 7.18672L9.89944 0.82309Z" fill="#454545"/>
<path d="M12.182 20.6315V12.2958C12.182 11.9501 12.0032 11.6287 11.7095 11.4463C11.6931 11.4361 11.6769 11.4261 11.6608 11.4161C10.3683 10.6132 8.73237 10.6133 7.43987 11.4161L7.39119 11.4464C7.09746 11.6288 6.91882 11.9501 6.91882 12.2958V20.6315" stroke="#454545"/>
</svg>
