<svg width="20" height="22" viewBox="0 0 20 22" fill="none" xmlns="http://www.w3.org/2000/svg">
<path d="M9.41675 19.9985V11.3348L1.83341 6.9435V15.2035C1.83341 15.3241 1.86336 15.4368 1.92325 15.5418C1.98314 15.6468 2.07258 15.7363 2.19158 15.8102L9.41675 19.9985ZM10.5834 19.9985L17.8074 15.8102C17.9272 15.7355 18.017 15.6461 18.0769 15.5418C18.1368 15.4376 18.1667 15.3248 18.1667 15.2035V6.9435L10.5834 11.3348V19.9985ZM9.05742 21.1348L1.60941 16.8415C1.31386 16.6727 1.08286 16.4433 0.916415 16.1532C0.749971 15.8631 0.666748 15.5492 0.666748 15.2117V6.78833C0.666748 6.45078 0.749971 6.13694 0.916415 5.84683C1.08286 5.55672 1.31386 5.32728 1.60941 5.1585L9.05742 0.865166C9.35297 0.696388 9.66719 0.612 10.0001 0.612C10.333 0.612 10.6472 0.696388 10.9427 0.865166L18.3907 5.1585C18.6863 5.32728 18.9173 5.55672 19.0837 5.84683C19.2502 6.13694 19.3334 6.45078 19.3334 6.78833V15.2117C19.3334 15.5492 19.2502 15.8631 19.0837 16.1532C18.9173 16.4433 18.6863 16.6727 18.3907 16.8415L10.9427 21.1348C10.6472 21.3036 10.333 21.388 10.0001 21.388C9.66719 21.388 9.35297 21.3036 9.05742 21.1348ZM14.3307 7.82083L17.4959 5.9985L10.3594 1.8685C10.2396 1.79383 10.1199 1.7565 10.0001 1.7565C9.8803 1.7565 9.76053 1.79383 9.64075 1.8685L6.85008 3.47267L14.3307 7.82083ZM10.0001 10.3315L13.1501 8.50333L5.65425 4.17033L2.50425 5.9985L10.0001 10.3315Z" fill="#3FE29E"/>
</svg>
