<svg width="30" height="30" viewBox="0 0 30 30" fill="none" xmlns="http://www.w3.org/2000/svg">
<path d="M25 25L19.9375 19.9375M19.9375 19.9375C20.75 19.1249 21.3946 18.1603 21.8343 17.0986C22.2741 16.037 22.5004 14.8991 22.5004 13.75C22.5004 12.6009 22.2741 11.463 21.8343 10.4013C21.3946 9.33968 20.75 8.37504 19.9375 7.56249C19.1249 6.74993 18.1603 6.10538 17.0986 5.66563C16.037 5.22588 14.8991 4.99954 13.75 4.99954C12.6008 4.99954 11.463 5.22588 10.4013 5.66563C9.33965 6.10538 8.37501 6.74993 7.56246 7.56249C5.92143 9.20352 4.99951 11.4292 4.99951 13.75C4.99951 16.0708 5.92143 18.2965 7.56246 19.9375C9.20349 21.5785 11.4292 22.5004 13.75 22.5004C16.0707 22.5004 18.2964 21.5785 19.9375 19.9375Z" stroke="#3FE29E" stroke-width="2" stroke-linecap="round" stroke-linejoin="round"/>
</svg>
