<svg width="10" height="8" viewBox="0 0 10 8" fill="none" xmlns="http://www.w3.org/2000/svg">
<path d="M4.71783 0.781599C4.8132 0.517427 5.1868 0.517427 5.28217 0.781599L6.05104 2.91129C6.09397 3.03019 6.20681 3.10942 6.33322 3.10942H8.74832C9.04652 3.10942 9.16208 3.49731 8.9125 3.66051L7.0149 4.90133C6.89853 4.97742 6.8497 5.1235 6.89691 5.25428L7.63419 7.29649C7.732 7.56742 7.42891 7.80708 7.18784 7.64945L5.16418 6.3262C5.06444 6.26099 4.93556 6.26099 4.83582 6.3262L2.81216 7.64945C2.57109 7.80709 2.268 7.56742 2.36581 7.29649L3.10309 5.25428C3.1503 5.1235 3.10147 4.97742 2.9851 4.90133L1.0875 3.66051C0.837917 3.49731 0.953478 3.10942 1.25168 3.10942H3.66678C3.79319 3.10942 3.90604 3.03019 3.94896 2.91129L4.71783 0.781599Z" fill="#FFC556"/>
</svg>
