<svg width="16" height="21" viewBox="0 0 16 21" fill="none" xmlns="http://www.w3.org/2000/svg">
<path d="M3.52503 10.7C3.35926 10.7 3.20029 10.7658 3.08308 10.8831C2.96587 11.0003 2.90003 11.1592 2.90003 11.325C2.90003 11.4908 2.96587 11.6497 3.08308 11.7669C3.20029 11.8842 3.35926 11.95 3.52503 11.95H12.275C12.4408 11.95 12.5998 11.8842 12.717 11.7669C12.8342 11.6497 12.9 11.4908 12.9 11.325C12.9 11.1592 12.8342 11.0003 12.717 10.8831C12.5998 10.7658 12.4408 10.7 12.275 10.7H3.52503ZM3.52503 13.2C3.35926 13.2 3.20029 13.2658 3.08308 13.3831C2.96587 13.5003 2.90003 13.6592 2.90003 13.825C2.90003 13.9908 2.96587 14.1497 3.08308 14.2669C3.20029 14.3842 3.35926 14.45 3.52503 14.45H12.275C12.4408 14.45 12.5998 14.3842 12.717 14.2669C12.8342 14.1497 12.9 13.9908 12.9 13.825C12.9 13.6592 12.8342 13.5003 12.717 13.3831C12.5998 13.2658 12.4408 13.2 12.275 13.2H3.52503ZM3.52503 15.7C3.35926 15.7 3.20029 15.7658 3.08308 15.8831C2.96587 16.0003 2.90003 16.1592 2.90003 16.325C2.90003 16.4908 2.96587 16.6497 3.08308 16.7669C3.20029 16.8842 3.35926 16.95 3.52503 16.95H12.275C12.4408 16.95 12.5998 16.8842 12.717 16.7669C12.8342 16.6497 12.9 16.4908 12.9 16.325C12.9 16.1592 12.8342 16.0003 12.717 15.8831C12.5998 15.7658 12.4408 15.7 12.275 15.7H3.52503ZM0.400024 3.2C0.400024 2.53696 0.663416 1.90107 1.13226 1.43223C1.6011 0.963393 2.23698 0.700001 2.90003 0.700001H8.63253C9.12964 0.700438 9.60623 0.89827 9.95753 1.25L14.8513 6.1425C15.2026 6.494 15.3999 6.97057 15.4 7.4675V18.2C15.4 18.863 15.1366 19.4989 14.6678 19.9678C14.199 20.4366 13.5631 20.7 12.9 20.7H2.90003C2.23698 20.7 1.6011 20.4366 1.13226 19.9678C0.663416 19.4989 0.400024 18.863 0.400024 18.2V3.2ZM2.90003 1.95C2.5685 1.95 2.25056 2.0817 2.01614 2.31612C1.78172 2.55054 1.65002 2.86848 1.65002 3.2V18.2C1.65002 18.5315 1.78172 18.8495 2.01614 19.0839C2.25056 19.3183 2.5685 19.45 2.90003 19.45H12.9C13.2315 19.45 13.5495 19.3183 13.7839 19.0839C14.0183 18.8495 14.15 18.5315 14.15 18.2V8.2H9.77503C9.27775 8.2 8.80083 8.00246 8.4492 7.65083C8.09757 7.2992 7.90003 6.82228 7.90003 6.325V1.95H2.90003ZM9.77503 6.95H13.8913L9.15003 2.20875V6.325C9.15003 6.49076 9.21587 6.64973 9.33309 6.76694C9.4503 6.88415 9.60927 6.95 9.77503 6.95Z" fill="#3FE29E"/>
</svg>
