<svg width="19" height="19" viewBox="0 0 19 19" fill="none" xmlns="http://www.w3.org/2000/svg">
<path d="M9.49992 2.17708C9.13147 2.17697 8.77206 2.29111 8.4712 2.50379C8.17033 2.71646 7.94282 3.01721 7.82 3.36458C7.76567 3.51058 7.65612 3.62938 7.515 3.69536C7.37387 3.76134 7.21247 3.76921 7.06559 3.71727C6.91872 3.66534 6.79814 3.55776 6.72986 3.41773C6.66158 3.2777 6.65106 3.11645 6.70059 2.96875C6.90527 2.38977 7.28442 1.88849 7.78583 1.53394C8.28723 1.17938 8.88622 0.988998 9.50031 0.988998C10.1144 0.988998 10.7134 1.17938 11.2148 1.53394C11.7162 1.88849 12.0954 2.38977 12.3 2.96875C12.3525 3.11729 12.3439 3.28061 12.2759 3.42277C12.208 3.56492 12.0864 3.67428 11.9379 3.72677C11.7893 3.77926 11.626 3.77059 11.4838 3.70266C11.3417 3.63474 11.2323 3.51313 11.1798 3.36458C11.0569 3.01727 10.8294 2.71659 10.5285 2.50393C10.2277 2.29127 9.86834 2.17708 9.49992 2.17708ZM2.177 4.75C2.177 4.59252 2.23956 4.4415 2.35091 4.33015C2.46226 4.2188 2.61328 4.15625 2.77075 4.15625H16.2291C16.3866 4.15625 16.5376 4.2188 16.6489 4.33015C16.7603 4.4415 16.8228 4.59252 16.8228 4.75C16.8228 4.90747 16.7603 5.05849 16.6489 5.16984C16.5376 5.28119 16.3866 5.34375 16.2291 5.34375H2.77075C2.61328 5.34375 2.46226 5.28119 2.35091 5.16984C2.23956 5.05849 2.177 4.90747 2.177 4.75ZM4.68263 6.68958C4.67213 6.53242 4.59963 6.38587 4.48108 6.28217C4.36253 6.17846 4.20764 6.1261 4.05048 6.1366C3.89332 6.1471 3.74677 6.2196 3.64307 6.33815C3.53937 6.4567 3.487 6.61159 3.4975 6.76875L3.86484 12.2724C3.93213 13.2873 3.98675 14.1075 4.115 14.7519C4.24879 15.4209 4.47521 15.9798 4.94388 16.4176C5.41175 16.8562 5.98492 17.0454 6.66179 17.1332C7.31254 17.2187 8.13429 17.2187 9.15238 17.2187H9.84825C10.8655 17.2187 11.6881 17.2187 12.3388 17.1332C13.0149 17.0454 13.5881 16.8562 14.0568 16.4176C14.5246 15.9798 14.751 15.4201 14.8848 14.7519C15.0131 14.1075 15.0669 13.2873 15.135 12.2724L15.5023 6.76875C15.5128 6.61159 15.4605 6.4567 15.3568 6.33815C15.2531 6.2196 15.1065 6.1471 14.9494 6.1366C14.7922 6.1261 14.6373 6.17846 14.5188 6.28217C14.4002 6.38587 14.3277 6.53242 14.3172 6.68958L13.953 12.1521C13.8818 13.2185 13.8311 13.961 13.7203 14.5192C13.6118 15.0615 13.4614 15.348 13.2453 15.5507C13.0284 15.7534 12.7323 15.8848 12.1845 15.956C11.62 16.0297 10.8758 16.0312 9.80629 16.0312H9.19354C8.12479 16.0312 7.38063 16.0297 6.81538 15.956C6.26754 15.8848 5.97146 15.7534 5.75454 15.5507C5.53842 15.348 5.388 15.0615 5.27954 14.5192C5.16871 13.961 5.11804 13.2185 5.04679 12.1521L4.68263 6.68958Z" fill="#C9C9C9"/>
<path d="M7.46142 8.11775C7.61804 8.10206 7.77448 8.1492 7.89636 8.24881C8.01824 8.34842 8.09558 8.49235 8.11137 8.64896L8.50721 12.6073C8.5188 12.7617 8.46959 12.9146 8.37008 13.0333C8.27056 13.1519 8.12862 13.227 7.97452 13.2425C7.82042 13.258 7.66637 13.2127 7.54522 13.1162C7.42407 13.0197 7.34542 12.8797 7.32604 12.726L6.93021 8.76771C6.91451 8.61109 6.96165 8.45464 7.06126 8.33276C7.16087 8.21089 7.3048 8.13355 7.46142 8.11775ZM12.0697 8.76771C12.0813 8.61327 12.0321 8.46041 11.9326 8.34174C11.8331 8.22307 11.6911 8.14798 11.537 8.13249C11.3829 8.117 11.2289 8.16233 11.1077 8.25881C10.9866 8.3553 10.9079 8.4953 10.8885 8.64896L10.4927 12.6073C10.4811 12.7617 10.5303 12.9146 10.6298 13.0333C10.7294 13.1519 10.8713 13.227 11.0254 13.2425C11.1795 13.258 11.3335 13.2127 11.4547 13.1162C11.5758 13.0197 11.6545 12.8797 11.6739 12.726L12.0697 8.76771Z" fill="#C9C9C9"/>
</svg>
