<svg width="25" height="25" viewBox="0 0 25 25" fill="none" xmlns="http://www.w3.org/2000/svg">
<g clip-path="url(#clip0_377_81)">
<path d="M14.603 7.00659C14.9477 7.00659 15.2891 7.07449 15.6076 7.20641C15.9261 7.33833 16.2154 7.53168 16.4592 7.77544C16.7029 8.01919 16.8963 8.30857 17.0282 8.62705C17.1601 8.94553 17.228 9.28687 17.228 9.63159C17.228 9.97631 17.1601 10.3177 17.0282 10.6361C16.8963 10.9546 16.7029 11.244 16.4592 11.4877C16.2154 11.7315 15.9261 11.9249 15.6076 12.0568C15.2891 12.1887 14.9477 12.2566 14.603 12.2566C13.9068 12.2566 13.2392 11.98 12.7469 11.4877C12.2546 10.9955 11.978 10.3278 11.978 9.63159C11.978 8.9354 12.2546 8.26772 12.7469 7.77544C13.2392 7.28315 13.9068 7.00659 14.603 7.00659ZM14.603 18.2566C18.3155 18.2566 22.228 20.0816 22.228 20.8816V22.2566H6.97803V20.8816C6.97803 20.0816 10.8905 18.2566 14.603 18.2566ZM14.603 4.63159C11.8405 4.63159 9.60303 6.86909 9.60303 9.63159C9.60303 12.3941 11.8405 14.6316 14.603 14.6316C17.3655 14.6316 19.603 12.3941 19.603 9.63159C19.603 6.86909 17.3655 4.63159 14.603 4.63159ZM14.603 15.8816C11.2655 15.8816 4.60303 17.5566 4.60303 20.8816V24.6316H24.603V20.8816C24.603 17.5566 17.9405 15.8816 14.603 15.8816Z" fill="#454545"/>
</g>
<defs>
<clipPath id="clip0_377_81">
<rect width="24" height="24" fill="white" transform="translate(0.603027 0.631592)"/>
</clipPath>
</defs>
</svg>
