<svg width="18" height="20" viewBox="0 0 18 20" fill="none" xmlns="http://www.w3.org/2000/svg">
<path d="M10.7141 8.57131C10.7141 8.003 10.4884 7.45796 10.0865 7.05611C9.68467 6.65425 9.13963 6.42849 8.57131 6.42849C8.003 6.42849 7.45796 6.65425 7.05611 7.05611C6.65425 7.45796 6.42849 8.003 6.42849 8.57131C6.42849 9.13963 6.65425 9.68466 7.05611 10.0865C7.45796 10.4884 8.003 10.7141 8.57131 10.7141C9.13963 10.7141 9.68467 10.4884 10.0865 10.0865C10.4884 9.68466 10.7141 9.13963 10.7141 8.57131ZM17.1426 8.57131C17.1426 12.677 12.7184 17.1655 10.227 19.3683C9.77146 19.7751 9.18208 20 8.57131 20C7.96055 20 7.37117 19.7751 6.91562 19.3683C4.42423 17.1655 0 12.677 0 8.57131C-1.67728e-08 7.44571 0.221704 6.33113 0.652452 5.29121C1.0832 4.25129 1.71456 3.3064 2.51048 2.51048C3.3064 1.71456 4.2513 1.0832 5.29121 0.652453C6.33113 0.221704 7.44571 0 8.57131 0C9.69692 0 10.8115 0.221704 11.8514 0.652453C12.8913 1.0832 13.8362 1.71456 14.6321 2.51048C15.4281 3.3064 16.0594 4.25129 16.4902 5.29121C16.9209 6.33113 17.1426 7.44571 17.1426 8.57131ZM15.7141 8.57131C15.7141 6.67694 14.9615 4.86015 13.622 3.52062C12.2825 2.18109 10.4657 1.42855 8.57131 1.42855C6.67694 1.42855 4.86015 2.18109 3.52062 3.52062C2.18109 4.86015 1.42855 6.67694 1.42855 8.57131C1.42855 10.1542 2.30711 11.9927 3.67138 13.8327C5.00565 15.6298 6.65277 17.2283 7.86132 18.2983C8.05578 18.4746 8.30886 18.5722 8.57131 18.5722C8.83378 18.5722 9.08685 18.4746 9.28131 18.2983C10.4899 17.2283 12.1384 15.6312 13.4713 13.8327C14.8355 11.9927 15.7141 10.1542 15.7141 8.57131Z" fill="#3FE29E"/>
</svg>
