<svg width="47" height="18" viewBox="0 0 47 18" fill="none" xmlns="http://www.w3.org/2000/svg">
<path fill-rule="evenodd" clip-rule="evenodd" d="M11.9718 16.3428C11.1075 15.9397 10.7556 14.8651 11.1858 13.9425L16.5343 2.4726C16.9645 1.55002 18.0139 1.12885 18.8782 1.5319C19.7426 1.93495 20.0945 3.00958 19.6643 3.93216L14.3158 15.4021C13.8856 16.3246 12.8362 16.7458 11.9718 16.3428Z" fill="#3FE29E"/>
<path fill-rule="evenodd" clip-rule="evenodd" d="M7.13906 16.3505C6.27472 15.9475 5.92419 14.8698 6.35614 13.9435L9.0594 8.14634C9.49134 7.22003 10.5422 6.79585 11.4065 7.1989C12.2709 7.60195 12.6214 8.6796 12.1894 9.6059L9.48618 15.4031C9.05424 16.3294 8.0034 16.7536 7.13906 16.3505Z" fill="#3FE29E"/>
<path fill-rule="evenodd" clip-rule="evenodd" d="M8.47964 16.494C7.6153 16.897 6.5655 16.4751 6.13484 15.5515L0.77975 4.0675C0.349096 3.14396 0.700667 2.06855 1.56501 1.6655C2.42934 1.26245 3.47914 1.6844 3.9098 2.60794L9.26489 14.092C9.69554 15.0155 9.34397 16.0909 8.47964 16.494Z" fill="#3FE29E"/>
<path d="M20.0189 5.97879C20.0189 5.35419 20.1405 4.76818 20.3837 4.22078C20.627 3.67338 20.9561 3.19615 21.371 2.78911C21.7931 2.37505 22.2831 2.04871 22.8412 1.8101C23.3992 1.57149 23.9965 1.45218 24.6333 1.45218H30.9595C30.9595 1.45218 32.3928 1.43891 32.3928 2.95616C32.3928 4.47342 30.9595 4.47343 30.9595 4.47343H24.6333C24.4186 4.47343 24.2183 4.51203 24.0323 4.58922C23.8463 4.66642 23.6818 4.7752 23.5387 4.91556C23.4028 5.0489 23.2954 5.20681 23.2167 5.38928C23.1381 5.57174 23.0987 5.76825 23.0987 5.97879C23.0987 6.18933 23.1381 6.38934 23.2167 6.57882C23.2954 6.76129 23.4028 6.92271 23.5387 7.06307C23.6818 7.19641 23.8463 7.30168 24.0323 7.37888C24.2183 7.45607 24.4186 7.49467 24.6333 7.49467H27.7131C28.3498 7.49467 28.9472 7.61398 29.5052 7.85259C30.0704 8.08418 30.5604 8.40701 30.9754 8.82107C31.3974 9.22812 31.7265 9.70885 31.9626 10.2633C32.2059 10.8107 32.3275 11.3967 32.3275 12.0213C32.3275 12.6459 32.2059 13.2319 31.9626 13.7793C31.7265 14.3267 31.3974 14.8074 30.9754 15.2215C30.5604 15.6285 30.0704 15.9513 29.5052 16.19C28.9472 16.4286 28.3498 16.5479 27.7131 16.5479H14.7812L16.1487 13.5266H27.7131C27.9277 13.5266 28.128 13.488 28.314 13.4108C28.5 13.3336 28.661 13.2284 28.7969 13.095C28.94 12.9547 29.0509 12.7933 29.1296 12.6108C29.2083 12.4283 29.2476 12.2318 29.2476 12.0213C29.2476 11.8107 29.2083 11.6142 29.1296 11.4318C29.0509 11.2493 28.94 11.0914 28.7969 10.958C28.661 10.8177 28.5 10.7089 28.314 10.6317C28.128 10.5545 27.9277 10.5159 27.7131 10.5159H24.6333C23.9965 10.5159 23.3992 10.3966 22.8412 10.158C22.2831 9.91939 21.7931 9.59656 21.371 9.18952C20.9561 8.77545 20.627 8.29472 20.3837 7.74732C20.1405 7.1929 20.0189 6.60339 20.0189 5.97879Z" fill="#3FE29E"/>
<path fill-rule="evenodd" clip-rule="evenodd" d="M41.9828 4.53624C42.6674 3.98302 43.4569 3.27178 43.4569 3.27178C43.0088 2.83041 42.517 2.46519 41.9814 2.17611C41.4544 1.88474 40.9019 1.66923 40.3239 1.52958C39.7521 1.37905 39.1689 1.30524 38.5741 1.30814C37.9879 1.30875 37.4084 1.38579 36.8357 1.53926C35.8697 1.79809 35.0122 2.23955 34.2632 2.86362C33.5227 3.48541 32.924 4.22569 32.4669 5.08447C32.0161 5.93237 31.73 6.865 31.6086 7.88234C31.4872 8.89968 31.568 9.93647 31.8511 10.9927C32.1111 11.9631 32.5388 12.8241 33.1341 13.5758C33.7295 14.3274 34.4286 14.9362 35.2315 15.4022C36.0429 15.8658 36.9212 16.1689 37.8665 16.3114C38.818 16.443 39.7767 16.3794 40.7427 16.1206C41.3155 15.9671 41.8527 15.7495 42.3544 15.4678C42.867 15.1924 43.3324 14.8606 43.7507 14.4724C44.1775 14.082 44.5508 13.646 44.8708 13.1645C45.1992 12.6807 45.4638 12.1634 45.6644 11.6127C45.6644 11.6127 44.5461 11.2738 43.6495 11.0728C43.0341 12.4538 41.8444 13.5463 40.2976 13.9607C37.5294 14.7025 34.6657 12.9917 33.9015 10.1396C33.1373 7.28744 34.7619 4.37404 37.5301 3.63229C39.1219 3.20577 40.7453 3.59019 41.9828 4.53624ZM41.7282 4.73812C40.5722 3.88341 39.075 3.54392 37.6115 3.93607C35.0195 4.63059 33.4837 7.3652 34.2053 10.0582C34.9269 12.7511 37.6242 14.3515 40.2162 13.657C41.6416 13.275 42.7476 12.2761 43.3344 11.0064C43.0001 10.9412 42.7294 10.9084 42.612 10.9398C42.2323 11.0416 42.0843 11.1766 41.8732 11.3692C41.839 11.4004 41.8032 11.4331 41.7644 11.4675C41.4168 11.7753 41.2671 11.8584 41.2671 11.8584C41.2671 11.8584 41.0374 12.0057 40.7464 12.1849C40.4554 12.3641 40.1389 12.4996 39.797 12.5912C39.3183 12.7195 38.8411 12.7507 38.3653 12.6849C37.8981 12.6168 37.4638 12.4662 37.0624 12.2333C36.6695 11.998 36.3269 11.694 36.0346 11.3213C35.7424 10.9487 35.5318 10.5219 35.403 10.041C35.2442 9.44846 35.189 8.8834 35.2374 8.34582C35.2857 7.80824 35.4166 7.32218 35.63 6.88764C35.8497 6.44222 36.1425 6.06464 36.5084 5.75489C36.8829 5.44285 37.3095 5.2227 37.7883 5.09442C38.1302 5.0028 38.4774 4.96499 38.8299 4.981C39.1823 4.99701 39.4531 5.08845 39.4531 5.08845L40.0899 5.21836C40.4538 5.29259 40.6652 5.27889 41.0664 5.17139C41.1827 5.14023 41.4323 4.9676 41.7282 4.73812Z" fill="#3FE29E"/>
</svg>
